<?xml version="1.0" encoding="UTF-8"?>
<svg width="124px" height="35px" viewBox="0 0 124 35" version="1.1" xmlns="http://www.w3.org/2000/svg" xmlns:xlink="http://www.w3.org/1999/xlink">
    <!-- Generator: sketchtool 41 (35326) - http://www.bohemiancoding.com/sketch -->
    <title>C05778FF-3201-4403-924B-A61EC75C39CF</title>
    <desc>Created with sketchtool.</desc>
    <defs>
        <linearGradient x1="0%" y1="0%" x2="100%" y2="100%" id="linearGradient-1">
            <stop stop-color="#FFFFFF" offset="0%"></stop>
            <stop stop-color="#FFFFFF" stop-opacity="0.7" offset="100%"></stop>
        </linearGradient>
    </defs>
    <g id="Page-1" stroke="none" stroke-width="1" fill="none" fill-rule="evenodd">
        <g id="main---02" transform="translate(-150.000000, -397.000000)">
            <g id="paragraph" transform="translate(150.000000, 397.000000)">
                <g id="logo">
                    <path d="M26.8638276,0 L0,0.0367698864 L0.0370846395,27.0652017 L27.0871912,27.0284318 L27.0503918,0 L26.8638276,0 Z M5.9592163,21.1110455 L21.1279749,21.1110455 L21.1279749,5.95415625 L5.9592163,5.95415625 L5.9592163,21.1110455 Z" id="Fill-1" fill="url(#linearGradient-1)"></path>
                    <g id="Group-11" transform="translate(35.087774, 7.553789)" fill="#FEFEFE">
                        <path d="M13.6519398,13.3537396 C14.5790558,12.4273665 15.0240715,11.3157188 15.0240715,10.0185114 C15.0240715,8.72158902 14.5790558,7.60994129 13.6519398,6.72062311 C12.7248238,5.79425 11.6122846,5.34959091 10.2769524,5.34959091 C8.90482069,5.34959091 7.75519687,5.79425 6.79099624,6.72062311 C5.86388025,7.60994129 5.38177994,8.72158902 5.38177994,10.0185114 C5.38177994,11.3157188 5.86388025,12.4273665 6.79099624,13.3537396 C7.75519687,14.2430578 8.90482069,14.6877169 10.2769524,14.6877169 C11.6122846,14.6877169 12.7248238,14.2430578 13.6519398,13.3537396 L13.6519398,13.3537396 Z M0.189645141,26.5085227 L0.189645141,0.680385417 L5.71554169,0.680385417 L5.71554169,3.12601042 C6.27181129,1.49559375 8.45980502,0.346891098 11.2785229,0.346891098 C13.9115323,0.346891098 16.1366107,1.2732642 17.8795887,3.16306534 C19.6599367,5.01609659 20.549968,7.31350189 20.549968,10.0185114 C20.549968,12.7238059 19.6599367,15.0212112 17.8795887,16.9110123 C16.1366107,18.7637585 13.9115323,19.6901316 11.2785229,19.6901316 C8.45980502,19.6901316 6.27181129,18.541429 5.71554169,16.9110123 L5.71554169,26.5085227 L0.189645141,26.5085227 Z" id="Fill-3"></path>
                        <path d="M23.4042016,19.3567798 L23.4042016,0.680527936 L28.9300981,0.680527936 L28.9300981,3.23731771 C29.7830448,1.34723153 31.7859006,0.272923769 34.3447408,0.272923769 C34.7155871,0.272923769 35.1976875,0.309978693 35.7910417,0.383803504 L35.7910417,5.57206297 C35.2347721,5.46061316 34.6043332,5.38650331 33.9368097,5.38650331 C30.7843301,5.38650331 28.9300981,7.16542472 28.9300981,10.2409834 L28.9300981,19.3567798 L23.4042016,19.3567798 Z" id="Fill-5"></path>
                        <path d="M43.7642677,13.5018168 C44.6913837,14.4281899 45.8410075,14.9099039 47.2131392,14.9099039 C48.5852708,14.9099039 49.7351799,14.4281899 50.6622959,13.5018168 C51.5894119,12.5383887 52.0715122,11.3896861 52.0715122,10.0183688 C52.0715122,8.64762169 51.5894119,7.498634 50.6622959,6.57226089 C49.7351799,5.6091179 48.5852708,5.12711884 47.2131392,5.12711884 C45.8410075,5.12711884 44.6913837,5.6091179 43.7642677,6.57226089 C42.8368665,7.498634 42.3550514,8.64762169 42.3550514,10.0183688 C42.3550514,11.3896861 42.8368665,12.5754437 43.7642677,13.5018168 M54.5561831,3.01498816 C56.5958382,4.9047893 57.5971235,7.23924953 57.5971235,10.0183688 C57.5971235,12.7977732 56.5958382,15.1325185 54.5561831,17.0590895 C52.5165279,18.9491757 50.0689417,19.9126037 47.2131392,19.9126037 C44.320252,19.9126037 41.8726658,18.9491757 39.8330107,17.0590895 C37.8304401,15.1325185 36.8288696,12.7977732 36.8288696,10.0183688 C36.8288696,7.23924953 37.8304401,4.9047893 39.8330107,3.01498816 C41.8726658,1.08784706 44.320252,0.124419034 47.2131392,0.124419034 C50.0689417,0.124419034 52.5165279,1.08784706 54.5561831,3.01498816" id="Fill-7"></path>
                        <path d="M60.4888411,19.3567798 L60.4888411,0.680527936 L66.0147376,0.680527936 L66.0147376,3.01498816 C66.7193458,1.38428646 68.6109476,0.272923769 70.8728254,0.272923769 C73.3948661,0.272923769 75.1010448,1.27340672 75.9539915,3.23731771 C76.9923614,1.27340672 79.0691013,0.272923769 82.1844962,0.272923769 C86.4492298,0.272923769 88.8226467,3.16292282 88.8226467,8.01768797 L88.8226467,19.3567798 L83.2967502,19.3567798 L83.2967502,8.68467661 C83.2967502,6.49843608 82.2954649,5.16417377 80.5154022,5.16417377 C78.6982549,5.16417377 77.4000072,6.68342566 77.4000072,8.86995123 L77.4000072,19.3567798 L71.8743959,19.3567798 L71.8743959,8.68467661 C71.8743959,6.49843608 70.8728254,5.16417377 69.0927627,5.16417377 C67.3127,5.16417377 66.0147376,6.68342566 66.0147376,8.86995123 L66.0147376,19.3567798 L60.4888411,19.3567798 Z" id="Fill-9"></path>
                    </g>
                </g>
            </g>
        </g>
    </g>
</svg>